<?xml version="1.0" encoding="utf-8"?>
<!-- Generator: Adobe Illustrator 24.2.1, SVG Export Plug-In . SVG Version: 6.00 Build 0)  -->
<svg version="1.1" id="Layer_1" xmlns="http://www.w3.org/2000/svg" xmlns:xlink="http://www.w3.org/1999/xlink" x="0px" y="0px"
	 viewBox="0 0 181.3546 209.6004" enable-background="new 0 0 181.3546 209.6004" xml:space="preserve">
<g>
	<path d="M69.8304,74.5145c-1.6028-5.4484,1.5252-11.1858,6.9725-12.7895c0.5911-0.1738,1.1978-0.2954,1.8055-0.3615
		c4.9541-0.5392,9.5737,2.5449,10.9839,7.3336l4.2671,14.497c0.9973-6.0248,2.5681-11.0905,3.011-16.8245
		c1.7167-10.0751-3.2584-17.8954-12.3187-18.6534c-9.0621-0.7558-21.2364,5.6234-24.6004,20.574
		c-1.6656,7.6193-2.6929,14.1901-3.0554,20.5186h17.142L69.8304,74.5145z"/>
	<path d="M142.7145,112.2793c-0.291-0.3062-0.5943-0.6049-0.9187-0.8892c-4.3732-3.8339-12.3647-5.4966-20.9522-6.0335v6.9227
		H142.7145z"/>
	<path d="M87.3861,69.3469c-1.248-4.237-5.6871-6.6645-9.9333-5.4155c-4.2385,1.2477-6.6631,5.6953-5.4159,9.9338l4.3987,14.9435
		h16.6791L87.3861,69.3469z"/>
	<path d="M143.6914,114.5791h-22.8478v24h13.5812l11.7314,44.8823c1.4102,5.395,6.2754,8.9688,11.6025,8.9683
		c1.0039,0,2.0254-0.127,3.043-0.3931c6.4111-1.6758,10.251-8.2324,8.5752-14.6445l-14.0752-53.8476
		C153.9209,118.2631,149.1504,114.5791,143.6914,114.5791z"/>
	<path d="M126.7028,149.0781l10.5898,41.4775c1.0957,4.2925,3.8037,7.8911,7.625,10.1328c2.563,1.5034,5.4136,2.272,8.3052,2.272
		c1.4204,0,2.8511-0.1855,4.2612-0.5605l21.6401-5.7524c1.6016-0.4258,2.5547-2.0688,2.1289-3.6699
		c-0.4253-1.6016-2.0737-2.5518-3.6699-2.1289l-21.6401,5.7524c-2.7227,0.7236-5.5596,0.3364-7.9893-1.0879
		c-2.4297-1.4253-4.1509-3.7129-4.8477-6.4419l-11.1665-43.7354c-0.3394-1.3281-1.5356-2.2578-2.9067-2.2578h-8.1893v6H126.7028z"/>
	<path d="M46.6056,112.997c21.7507,0,40.902,14.0732,47.5508,34.5565h21.2174v7.84v6.008H96.59
		c0.035,1.0335,0.0438,2.0659,0.0143,3.0962h18.7695v2.3736v14.9753c-1.1647-0.3113-2.3826-0.493-3.6454-0.493
		c-7.79,0-14.105,6.315-14.105,14.105s6.315,14.105,14.105,14.105s14.105-6.315,14.105-14.105c0-4.332-1.9568-8.2036-5.0304-10.791
		c-0.0739,1.5717-0.3528,3.11-0.8434,4.5834c1.3059,1.7288,2.0895,3.8741,2.0895,6.2076c0,5.7-4.6207,10.3207-10.3207,10.3207
		s-10.3207-4.6207-10.3207-10.3207s4.6207-10.3207,10.3207-10.3207c1.2256,0,2.3959,0.2247,3.4865,0.6168
		c-0.2786,1.6931-0.9255,3.304-1.9183,4.7336l-0.6469,0.9312c-0.2975-0.0679-0.6039-0.1113-0.9217-0.1113
		c-2.2889,0-4.1505,1.8616-4.1505,4.1505s1.8616,4.1505,4.1505,4.1505c2.2889,0,4.1515-1.8616,4.1515-4.1505
		c0-0.8405-0.2549-1.6208-0.6861-2.275l0.645-0.9285c1.7214-2.4779,2.6316-5.3826,2.6316-8.3997v-13.5489v-3.4352v-2.3736v-9.1042
		V99.0938c0-4.3621-3.5488-7.9114-7.9109-7.9114H54.4292c-4.3621,0-7.9108,3.5493-7.9108,7.9114v1.7629L44.55,96.2636
		l-6.1538-14.3588c-2.5112-5.8589-9.0312-8.9663-15.2007-7.2207L7.7092,79.2945l1.7119,5.751l15.4473-4.5991
		c3.2378-0.9199,6.686,0.7251,8.0132,3.8218l11.2633,26.2811l1.0684,2.4929C45.6774,113.0289,46.1413,112.997,46.6056,112.997z
		 M51.9881,94.9668c0.7184-0.4268,1.5466-0.6882,2.4411-0.6882h2.3304c0.015,3.2759,0.2142,6.5555,0.6066,9.9407h21.208
		l-2.9261-9.9407h2.3975l2.9261,9.9407h16.679l-2.9261-9.9407h2.3975h13.437c0.8945,0,1.7227,0.2614,2.4411,0.6881
		c1.4138,0.8398,2.3736,2.3665,2.3736,4.1271v7.4988H49.6146v-7.4988C49.6146,97.3332,50.5744,95.8066,51.9881,94.9668z"/>
	<path d="M46.6207,209.6004c3.9035,0,7.8685-0.4949,11.8174-1.531c12.0382-3.1582,22.126-10.8156,28.4052-21.5611
		c6.2781-10.746,7.9965-23.2936,4.8378-35.3318c-6.519-24.8508-32.0436-39.7644-56.8939-33.2424
		c-12.0381,3.1582-22.125,10.8156-28.4041,21.5616c-6.2781,10.7455-7.9965,23.2931-4.8378,35.3312
		C7.0292,195.7294,25.9571,209.6004,46.6207,209.6004z M6.8135,174.4784l5.2515-1.3779
		c3.4034,11.6226,12.5172,20.8262,24.0897,24.3467l-1.4366,5.2521c-3.1099-0.9379-6.1324-2.2435-9.0079-3.9236
		C16.4433,193.3613,9.771,184.7563,6.8135,174.4784z M13.613,163.0015c0-8.8005,3.4695-16.801,9.1041-22.7234l17.742,17.9275
		c-1.2492,1.6053-1.8607,3.6761-1.5857,5.793l-24.4129,6.4056C13.9123,168.0227,13.613,165.5471,13.613,163.0015z M54.35,130.9264
		l-6.6575,24.3396c-0.9937-0.1391-2.0305-0.0894-3.0616,0.1812c-1.031,0.2705-1.9585,0.7361-2.7558,1.345l-17.7375-17.923
		c5.8969-5.4958,13.7979-8.8677,22.4755-8.8677C49.2777,130.0015,51.8666,130.3273,54.35,130.9264z M79.613,163.0015
		c0,8.8007-3.4697,16.8012-9.1044,22.7237l-17.7418-17.9272c1.2491-1.6053,1.8607-3.6761,1.5858-5.793l24.4129-6.4056
		C79.3136,157.9807,79.613,160.4561,79.613,163.0015z M41.8567,164.2497c-0.6893-2.6268,0.8815-5.315,3.5082-6.0043
		c2.6268-0.6892,5.315,0.8815,6.0043,3.5083c0.6892,2.6268-0.8815,5.315-3.5083,6.0042
		C45.2341,168.4472,42.5459,166.8765,41.8567,164.2497z M48.5952,170.5563c1.031-0.2705,1.9584-0.7361,2.7557-1.345l17.7373,17.9227
		c-5.8969,5.4956-13.7978,8.8675-22.4753,8.8675c-2.6647,0-5.2535-0.3257-7.7369-0.9249l6.6574-24.3392
		C46.5272,170.8765,47.564,170.8269,48.5952,170.5563z M53.845,160.0703c-0.7998-1.9794-2.3495-3.4833-4.2261-4.2684l6.6611-24.3528
		c10.5439,3.237,18.8492,11.6254,21.9793,22.2152L53.845,160.0703z M39.381,165.9332c0.7998,1.9794,2.3495,3.4833,4.2261,4.2684
		l-6.661,24.3524c-10.5439-3.2369-18.8491-11.6252-21.9793-22.2148L39.381,165.9332z M57.1278,203.0783
		c-6.8211,1.7892-13.8247,1.8103-20.4819,0.1513l1.4381-5.2576c2.736,0.6674,5.5903,1.0295,8.5289,1.0295
		c9.499,0,18.1444-3.7044,24.5844-9.7364l3.8492,3.8895C70.0614,197.8685,63.9496,201.2885,57.1278,203.0783z M82.3874,183.9044
		c-1.6803,2.8755-3.6724,5.4969-5.921,7.8409l-3.8482-3.8885c6.184-6.4673,9.9948-15.2219,9.9948-24.8553
		c0-2.8084-0.3337-5.5388-0.945-8.1638l5.2524-1.3781C89.3902,163.8657,87.8022,174.6383,82.3874,183.9044z M86.4156,151.5242
		l-5.2546,1.3787c-3.4033-11.6227-12.5171-20.8266-24.0897-24.3472l1.4308-5.2308
		C71.565,127.2631,82.3919,137.5564,86.4156,151.5242z M36.0975,122.9251c3.5114-0.9212,7.036-1.3611,10.5081-1.3611
		c3.3978,0,6.7423,0.4243,9.9689,1.2296l-1.4326,5.2374c-2.736-0.6674-5.5904-1.0295-8.529-1.0295
		c-9.4991,0-18.1446,3.7045-24.5846,9.7366l-3.8489-3.8892C23.1645,128.135,29.2763,124.715,36.0975,122.9251z M10.8389,142.0985
		c1.6802-2.8753,3.6722-5.4965,5.9207-7.8403l3.848,3.8882c-6.1839,6.4673-9.9946,15.2218-9.9946,24.8551
		c0,2.8086,0.3337,5.5391,0.9451,8.1642l-5.2521,1.3781C3.836,162.1376,5.4242,151.3652,10.8389,142.0985z"/>
	<ellipse transform="matrix(0.3508 -0.9364 0.9364 0.3508 43.213 107.3392)" cx="99.0255" cy="22.502" rx="22.5" ry="22.5"/>
</g>
</svg>
